<mxfile host="app.diagrams.net" modified="2023-07-07T01:08:45.246Z" agent="Mozilla/5.0 (Windows NT 10.0; Win64; x64; rv:109.0) Gecko/20100101 Firefox/115.0" etag="kIb1hPfiDnqNonTrFET-" version="21.6.1" type="google">
  <diagram id="Uo8qd1kiUdgk_dLTgdJv" name="Page-2">
    <mxGraphModel grid="0" page="1" gridSize="10" guides="1" tooltips="1" connect="1" arrows="1" fold="1" pageScale="1" pageWidth="1100" pageHeight="850" math="0" shadow="0">
      <root>
        <mxCell id="0" />
        <mxCell id="1" parent="0" />
        <mxCell id="I2vS5NGbRmWMpXVFBBUi-1" value="" style="group" connectable="0" vertex="1" parent="1">
          <mxGeometry x="34" y="38" width="958" height="770" as="geometry" />
        </mxCell>
        <mxCell id="iVNEUMaBJX04QpkRA2RZ-22" style="edgeStyle=orthogonalEdgeStyle;rounded=0;orthogonalLoop=1;jettySize=auto;html=1;exitX=1;exitY=0.25;exitDx=0;exitDy=0;entryX=0;entryY=0.25;entryDx=0;entryDy=0;" edge="1" parent="I2vS5NGbRmWMpXVFBBUi-1">
          <mxGeometry relative="1" as="geometry">
            <mxPoint x="230" y="220" as="sourcePoint" />
            <mxPoint x="450" y="220" as="targetPoint" />
          </mxGeometry>
        </mxCell>
        <mxCell id="iVNEUMaBJX04QpkRA2RZ-23" value="store_dig" style="edgeLabel;html=1;align=center;verticalAlign=middle;resizable=0;points=[];" vertex="1" connectable="0" parent="iVNEUMaBJX04QpkRA2RZ-22">
          <mxGeometry x="0.0579" y="2" relative="1" as="geometry">
            <mxPoint as="offset" />
          </mxGeometry>
        </mxCell>
        <mxCell id="iVNEUMaBJX04QpkRA2RZ-24" style="edgeStyle=orthogonalEdgeStyle;rounded=0;orthogonalLoop=1;jettySize=auto;html=1;entryX=0;entryY=0.5;entryDx=0;entryDy=0;" edge="1" parent="I2vS5NGbRmWMpXVFBBUi-1">
          <mxGeometry relative="1" as="geometry">
            <mxPoint x="230" y="279.9999999999999" as="sourcePoint" />
            <mxPoint x="450" y="280" as="targetPoint" />
            <Array as="points">
              <mxPoint x="400" y="280" />
              <mxPoint x="400" y="280" />
            </Array>
          </mxGeometry>
        </mxCell>
        <mxCell id="iVNEUMaBJX04QpkRA2RZ-26" value="result_ready" style="edgeLabel;html=1;align=center;verticalAlign=middle;resizable=0;points=[];" vertex="1" connectable="0" parent="iVNEUMaBJX04QpkRA2RZ-24">
          <mxGeometry x="0.0262" y="-1" relative="1" as="geometry">
            <mxPoint as="offset" />
          </mxGeometry>
        </mxCell>
        <mxCell id="iVNEUMaBJX04QpkRA2RZ-29" style="edgeStyle=orthogonalEdgeStyle;rounded=0;orthogonalLoop=1;jettySize=auto;html=1;exitX=1;exitY=0.25;exitDx=0;exitDy=0;entryX=-0.001;entryY=0.379;entryDx=0;entryDy=0;entryPerimeter=0;" edge="1" parent="I2vS5NGbRmWMpXVFBBUi-1" target="iVNEUMaBJX04QpkRA2RZ-5">
          <mxGeometry relative="1" as="geometry">
            <mxPoint x="420" y="250" as="targetPoint" />
            <mxPoint x="230" y="250" as="sourcePoint" />
          </mxGeometry>
        </mxCell>
        <mxCell id="iVNEUMaBJX04QpkRA2RZ-30" value="digit" style="edgeLabel;html=1;align=center;verticalAlign=middle;resizable=0;points=[];" vertex="1" connectable="0" parent="iVNEUMaBJX04QpkRA2RZ-29">
          <mxGeometry x="0.0587" y="-4" relative="1" as="geometry">
            <mxPoint as="offset" />
          </mxGeometry>
        </mxCell>
        <mxCell id="iVNEUMaBJX04QpkRA2RZ-2" value="binary keyencoder / write fsm" style="rounded=0;whiteSpace=wrap;html=1;" vertex="1" parent="I2vS5NGbRmWMpXVFBBUi-1">
          <mxGeometry x="100" y="190" width="130" height="160" as="geometry" />
        </mxCell>
        <mxCell id="WR3jzJnu0eO9VFohUoPm-1" style="edgeStyle=orthogonalEdgeStyle;rounded=0;orthogonalLoop=1;jettySize=auto;html=1;exitX=0;exitY=0.5;exitDx=0;exitDy=0;entryX=0;entryY=0.5;entryDx=0;entryDy=0;" edge="1" parent="I2vS5NGbRmWMpXVFBBUi-1" target="iVNEUMaBJX04QpkRA2RZ-3">
          <mxGeometry relative="1" as="geometry">
            <mxPoint x="396.00006103515625" y="250.60000610351562" as="sourcePoint" />
            <Array as="points">
              <mxPoint x="396" y="100" />
            </Array>
          </mxGeometry>
        </mxCell>
        <mxCell id="iVNEUMaBJX04QpkRA2RZ-3" value="negative input" style="whiteSpace=wrap;html=1;" vertex="1" parent="I2vS5NGbRmWMpXVFBBUi-1">
          <mxGeometry x="485" y="70" width="60" height="60" as="geometry" />
        </mxCell>
        <mxCell id="iVNEUMaBJX04QpkRA2RZ-16" style="edgeStyle=orthogonalEdgeStyle;rounded=0;orthogonalLoop=1;jettySize=auto;html=1;exitX=0.5;exitY=1;exitDx=0;exitDy=0;entryX=0.5;entryY=0;entryDx=0;entryDy=0;" edge="1" parent="I2vS5NGbRmWMpXVFBBUi-1" source="iVNEUMaBJX04QpkRA2RZ-4" target="iVNEUMaBJX04QpkRA2RZ-2">
          <mxGeometry relative="1" as="geometry" />
        </mxCell>
        <mxCell id="iVNEUMaBJX04QpkRA2RZ-17" value="isop" style="edgeLabel;html=1;align=center;verticalAlign=middle;resizable=0;points=[];" vertex="1" connectable="0" parent="iVNEUMaBJX04QpkRA2RZ-16">
          <mxGeometry x="-0.1905" y="-2" relative="1" as="geometry">
            <mxPoint as="offset" />
          </mxGeometry>
        </mxCell>
        <mxCell id="iVNEUMaBJX04QpkRA2RZ-18" style="edgeStyle=orthogonalEdgeStyle;rounded=0;orthogonalLoop=1;jettySize=auto;html=1;exitX=0.25;exitY=1;exitDx=0;exitDy=0;entryX=0.25;entryY=0;entryDx=0;entryDy=0;" edge="1" parent="I2vS5NGbRmWMpXVFBBUi-1" source="iVNEUMaBJX04QpkRA2RZ-4" target="iVNEUMaBJX04QpkRA2RZ-2">
          <mxGeometry relative="1" as="geometry" />
        </mxCell>
        <mxCell id="iVNEUMaBJX04QpkRA2RZ-19" value="isenter" style="edgeLabel;html=1;align=center;verticalAlign=middle;resizable=0;points=[];" vertex="1" connectable="0" parent="iVNEUMaBJX04QpkRA2RZ-18">
          <mxGeometry x="-0.1286" y="-2" relative="1" as="geometry">
            <mxPoint as="offset" />
          </mxGeometry>
        </mxCell>
        <mxCell id="iVNEUMaBJX04QpkRA2RZ-20" style="edgeStyle=orthogonalEdgeStyle;rounded=0;orthogonalLoop=1;jettySize=auto;html=1;exitX=0.75;exitY=1;exitDx=0;exitDy=0;entryX=0.75;entryY=0;entryDx=0;entryDy=0;" edge="1" parent="I2vS5NGbRmWMpXVFBBUi-1" source="iVNEUMaBJX04QpkRA2RZ-4" target="iVNEUMaBJX04QpkRA2RZ-2">
          <mxGeometry relative="1" as="geometry" />
        </mxCell>
        <mxCell id="iVNEUMaBJX04QpkRA2RZ-21" value="isresult" style="edgeLabel;html=1;align=center;verticalAlign=middle;resizable=0;points=[];" vertex="1" connectable="0" parent="iVNEUMaBJX04QpkRA2RZ-20">
          <mxGeometry x="0.0429" y="-1" relative="1" as="geometry">
            <mxPoint as="offset" />
          </mxGeometry>
        </mxCell>
        <mxCell id="iVNEUMaBJX04QpkRA2RZ-45" style="edgeStyle=orthogonalEdgeStyle;rounded=0;orthogonalLoop=1;jettySize=auto;html=1;exitX=1;exitY=0.5;exitDx=0;exitDy=0;" edge="1" parent="I2vS5NGbRmWMpXVFBBUi-1" target="iVNEUMaBJX04QpkRA2RZ-9">
          <mxGeometry relative="1" as="geometry">
            <mxPoint x="215" y="45" as="sourcePoint" />
            <mxPoint x="150" y="400" as="targetPoint" />
            <Array as="points">
              <mxPoint x="290" y="45" />
              <mxPoint x="290" y="360" />
              <mxPoint x="150" y="360" />
            </Array>
          </mxGeometry>
        </mxCell>
        <mxCell id="iVNEUMaBJX04QpkRA2RZ-46" value="opcode" style="edgeLabel;html=1;align=center;verticalAlign=middle;resizable=0;points=[];" vertex="1" connectable="0" parent="iVNEUMaBJX04QpkRA2RZ-45">
          <mxGeometry x="-0.9145" y="2" relative="1" as="geometry">
            <mxPoint x="12" y="2" as="offset" />
          </mxGeometry>
        </mxCell>
        <mxCell id="iVNEUMaBJX04QpkRA2RZ-59" style="edgeStyle=orthogonalEdgeStyle;rounded=0;orthogonalLoop=1;jettySize=auto;html=1;exitX=0;exitY=0.5;exitDx=0;exitDy=0;entryX=0;entryY=0.5;entryDx=0;entryDy=0;" edge="1" parent="I2vS5NGbRmWMpXVFBBUi-1" target="iVNEUMaBJX04QpkRA2RZ-4">
          <mxGeometry relative="1" as="geometry">
            <mxPoint x="10" y="45.333333333333314" as="sourcePoint" />
          </mxGeometry>
        </mxCell>
        <mxCell id="iVNEUMaBJX04QpkRA2RZ-60" value="in" style="edgeLabel;html=1;align=center;verticalAlign=middle;resizable=0;points=[];" vertex="1" connectable="0" parent="iVNEUMaBJX04QpkRA2RZ-59">
          <mxGeometry x="0.0309" relative="1" as="geometry">
            <mxPoint as="offset" />
          </mxGeometry>
        </mxCell>
        <mxCell id="iVNEUMaBJX04QpkRA2RZ-4" value="opcode encoder" style="whiteSpace=wrap;html=1;" vertex="1" parent="I2vS5NGbRmWMpXVFBBUi-1">
          <mxGeometry x="100" width="130" height="90" as="geometry" />
        </mxCell>
        <mxCell id="iVNEUMaBJX04QpkRA2RZ-63" style="edgeStyle=orthogonalEdgeStyle;rounded=0;orthogonalLoop=1;jettySize=auto;html=1;exitX=1;exitY=0.25;exitDx=0;exitDy=0;entryX=0.75;entryY=0;entryDx=0;entryDy=0;" edge="1" parent="I2vS5NGbRmWMpXVFBBUi-1" target="iVNEUMaBJX04QpkRA2RZ-5">
          <mxGeometry relative="1" as="geometry">
            <mxPoint x="590" y="437.5" as="sourcePoint" />
            <mxPoint x="550" y="360" as="targetPoint" />
            <Array as="points">
              <mxPoint x="590" y="440" />
              <mxPoint x="650" y="440" />
              <mxPoint x="650" y="170" />
              <mxPoint x="548" y="170" />
            </Array>
          </mxGeometry>
        </mxCell>
        <mxCell id="iVNEUMaBJX04QpkRA2RZ-70" value="sign" style="edgeLabel;html=1;align=center;verticalAlign=middle;resizable=0;points=[];" vertex="1" connectable="0" parent="iVNEUMaBJX04QpkRA2RZ-63">
          <mxGeometry x="-0.7669" y="2" relative="1" as="geometry">
            <mxPoint x="-21" as="offset" />
          </mxGeometry>
        </mxCell>
        <mxCell id="iVNEUMaBJX04QpkRA2RZ-87" style="edgeStyle=orthogonalEdgeStyle;rounded=0;orthogonalLoop=1;jettySize=auto;html=1;exitX=1;exitY=0.25;exitDx=0;exitDy=0;" edge="1" parent="I2vS5NGbRmWMpXVFBBUi-1" source="iVNEUMaBJX04QpkRA2RZ-5">
          <mxGeometry relative="1" as="geometry">
            <mxPoint x="880" y="230" as="targetPoint" />
          </mxGeometry>
        </mxCell>
        <mxCell id="iVNEUMaBJX04QpkRA2RZ-88" value="sign" style="edgeLabel;html=1;align=center;verticalAlign=middle;resizable=0;points=[];" vertex="1" connectable="0" parent="iVNEUMaBJX04QpkRA2RZ-87">
          <mxGeometry x="0.0271" relative="1" as="geometry">
            <mxPoint as="offset" />
          </mxGeometry>
        </mxCell>
        <mxCell id="iVNEUMaBJX04QpkRA2RZ-5" value="new operand buffer" style="whiteSpace=wrap;html=1;" vertex="1" parent="I2vS5NGbRmWMpXVFBBUi-1">
          <mxGeometry x="450" y="190" width="130" height="160" as="geometry" />
        </mxCell>
        <mxCell id="iVNEUMaBJX04QpkRA2RZ-27" style="edgeStyle=orthogonalEdgeStyle;rounded=0;orthogonalLoop=1;jettySize=auto;html=1;exitX=1;exitY=0.75;exitDx=0;exitDy=0;entryX=0;entryY=0.75;entryDx=0;entryDy=0;" edge="1" parent="I2vS5NGbRmWMpXVFBBUi-1" source="iVNEUMaBJX04QpkRA2RZ-2" target="iVNEUMaBJX04QpkRA2RZ-5">
          <mxGeometry relative="1" as="geometry" />
        </mxCell>
        <mxCell id="iVNEUMaBJX04QpkRA2RZ-28" value="enter" style="edgeLabel;html=1;align=center;verticalAlign=middle;resizable=0;points=[];" vertex="1" connectable="0" parent="iVNEUMaBJX04QpkRA2RZ-27">
          <mxGeometry x="-0.095" y="1" relative="1" as="geometry">
            <mxPoint as="offset" />
          </mxGeometry>
        </mxCell>
        <mxCell id="iVNEUMaBJX04QpkRA2RZ-65" style="edgeStyle=orthogonalEdgeStyle;rounded=0;orthogonalLoop=1;jettySize=auto;html=1;entryX=0.5;entryY=0;entryDx=0;entryDy=0;" edge="1" parent="I2vS5NGbRmWMpXVFBBUi-1" source="iVNEUMaBJX04QpkRA2RZ-3" target="iVNEUMaBJX04QpkRA2RZ-5">
          <mxGeometry relative="1" as="geometry" />
        </mxCell>
        <mxCell id="iVNEUMaBJX04QpkRA2RZ-66" value="digit_con" style="edgeLabel;html=1;align=center;verticalAlign=middle;resizable=0;points=[];" vertex="1" connectable="0" parent="iVNEUMaBJX04QpkRA2RZ-65">
          <mxGeometry x="-0.24" relative="1" as="geometry">
            <mxPoint as="offset" />
          </mxGeometry>
        </mxCell>
        <mxCell id="iVNEUMaBJX04QpkRA2RZ-36" style="edgeStyle=orthogonalEdgeStyle;rounded=0;orthogonalLoop=1;jettySize=auto;html=1;entryX=0;entryY=0.5;entryDx=0;entryDy=0;" edge="1" parent="I2vS5NGbRmWMpXVFBBUi-1" target="iVNEUMaBJX04QpkRA2RZ-9">
          <mxGeometry relative="1" as="geometry">
            <mxPoint x="155" y="710" as="sourcePoint" />
            <mxPoint x="90" y="485" as="targetPoint" />
            <Array as="points">
              <mxPoint x="155" y="740" />
              <mxPoint x="30" y="740" />
              <mxPoint x="30" y="485" />
            </Array>
          </mxGeometry>
        </mxCell>
        <mxCell id="iVNEUMaBJX04QpkRA2RZ-37" value="reg_num" style="edgeLabel;html=1;align=center;verticalAlign=middle;resizable=0;points=[];" vertex="1" connectable="0" parent="iVNEUMaBJX04QpkRA2RZ-36">
          <mxGeometry x="0.0524" y="-1" relative="1" as="geometry">
            <mxPoint x="126" y="85" as="offset" />
          </mxGeometry>
        </mxCell>
        <mxCell id="iVNEUMaBJX04QpkRA2RZ-74" style="edgeStyle=orthogonalEdgeStyle;rounded=0;orthogonalLoop=1;jettySize=auto;html=1;exitX=0.5;exitY=0;exitDx=0;exitDy=0;entryX=-0.007;entryY=0.852;entryDx=0;entryDy=0;entryPerimeter=0;" edge="1" parent="I2vS5NGbRmWMpXVFBBUi-1" source="iVNEUMaBJX04QpkRA2RZ-7" target="iVNEUMaBJX04QpkRA2RZ-2">
          <mxGeometry relative="1" as="geometry">
            <Array as="points">
              <mxPoint x="180" y="620" />
              <mxPoint x="60" y="620" />
              <mxPoint x="60" y="326" />
            </Array>
          </mxGeometry>
        </mxCell>
        <mxCell id="iVNEUMaBJX04QpkRA2RZ-75" value="isreg" style="edgeLabel;html=1;align=center;verticalAlign=middle;resizable=0;points=[];" vertex="1" connectable="0" parent="iVNEUMaBJX04QpkRA2RZ-74">
          <mxGeometry x="-0.6338" relative="1" as="geometry">
            <mxPoint as="offset" />
          </mxGeometry>
        </mxCell>
        <mxCell id="iVNEUMaBJX04QpkRA2RZ-7" value="register decoder" style="whiteSpace=wrap;html=1;" vertex="1" parent="I2vS5NGbRmWMpXVFBBUi-1">
          <mxGeometry x="130" y="650" width="100" height="60" as="geometry" />
        </mxCell>
        <mxCell id="iVNEUMaBJX04QpkRA2RZ-8" value="reg file" style="whiteSpace=wrap;html=1;" vertex="1" parent="I2vS5NGbRmWMpXVFBBUi-1">
          <mxGeometry x="290" y="650" width="120" height="50" as="geometry" />
        </mxCell>
        <mxCell id="iVNEUMaBJX04QpkRA2RZ-68" style="edgeStyle=orthogonalEdgeStyle;rounded=0;orthogonalLoop=1;jettySize=auto;html=1;exitX=0.25;exitY=1;exitDx=0;exitDy=0;entryX=0.836;entryY=-0.019;entryDx=0;entryDy=0;entryPerimeter=0;" edge="1" parent="I2vS5NGbRmWMpXVFBBUi-1" source="iVNEUMaBJX04QpkRA2RZ-5" target="iVNEUMaBJX04QpkRA2RZ-8">
          <mxGeometry relative="1" as="geometry">
            <mxPoint x="410" y="620" as="targetPoint" />
            <Array as="points">
              <mxPoint x="470" y="350" />
              <mxPoint x="470" y="370" />
              <mxPoint x="390" y="370" />
            </Array>
          </mxGeometry>
        </mxCell>
        <mxCell id="iVNEUMaBJX04QpkRA2RZ-69" value="op" style="edgeLabel;html=1;align=center;verticalAlign=middle;resizable=0;points=[];" connectable="0" vertex="1" parent="iVNEUMaBJX04QpkRA2RZ-68">
          <mxGeometry x="-0.6444" y="-2" relative="1" as="geometry">
            <mxPoint as="offset" />
          </mxGeometry>
        </mxCell>
        <mxCell id="iVNEUMaBJX04QpkRA2RZ-9" value="read fsm" style="whiteSpace=wrap;html=1;" vertex="1" parent="I2vS5NGbRmWMpXVFBBUi-1">
          <mxGeometry x="100" y="400" width="130" height="170" as="geometry" />
        </mxCell>
        <mxCell id="iVNEUMaBJX04QpkRA2RZ-47" style="edgeStyle=orthogonalEdgeStyle;rounded=0;orthogonalLoop=1;jettySize=auto;html=1;exitX=0;exitY=0.75;exitDx=0;exitDy=0;" edge="1" parent="I2vS5NGbRmWMpXVFBBUi-1" source="iVNEUMaBJX04QpkRA2RZ-9" target="iVNEUMaBJX04QpkRA2RZ-8">
          <mxGeometry relative="1" as="geometry">
            <mxPoint x="80" y="530" as="sourcePoint" />
            <Array as="points">
              <mxPoint x="80" y="528" />
              <mxPoint x="80" y="590" />
              <mxPoint x="260" y="590" />
              <mxPoint x="260" y="720" />
              <mxPoint x="350" y="720" />
            </Array>
          </mxGeometry>
        </mxCell>
        <mxCell id="iVNEUMaBJX04QpkRA2RZ-48" value="reg_sel" style="edgeLabel;html=1;align=center;verticalAlign=middle;resizable=0;points=[];" vertex="1" connectable="0" parent="iVNEUMaBJX04QpkRA2RZ-47">
          <mxGeometry x="-0.719" relative="1" as="geometry">
            <mxPoint x="136" y="13" as="offset" />
          </mxGeometry>
        </mxCell>
        <mxCell id="iVNEUMaBJX04QpkRA2RZ-61" style="edgeStyle=orthogonalEdgeStyle;rounded=0;orthogonalLoop=1;jettySize=auto;html=1;exitX=1;exitY=0.105;exitDx=0;exitDy=0;exitPerimeter=0;" edge="1" parent="I2vS5NGbRmWMpXVFBBUi-1" target="iVNEUMaBJX04QpkRA2RZ-5">
          <mxGeometry relative="1" as="geometry">
            <mxPoint x="589.35" y="414.79999999999995" as="sourcePoint" />
            <mxPoint x="579.9999999999999" y="350.00000000000006" as="targetPoint" />
            <Array as="points">
              <mxPoint x="589" y="400" />
              <mxPoint x="629" y="400" />
              <mxPoint x="629" y="180" />
              <mxPoint x="570" y="180" />
            </Array>
          </mxGeometry>
        </mxCell>
        <mxCell id="iVNEUMaBJX04QpkRA2RZ-67" value="oflag" style="edgeLabel;html=1;align=center;verticalAlign=middle;resizable=0;points=[];" vertex="1" connectable="0" parent="iVNEUMaBJX04QpkRA2RZ-61">
          <mxGeometry x="-0.7657" y="-2" relative="1" as="geometry">
            <mxPoint x="-5" y="-2" as="offset" />
          </mxGeometry>
        </mxCell>
        <mxCell id="iVNEUMaBJX04QpkRA2RZ-10" value="ALU" style="whiteSpace=wrap;html=1;" vertex="1" parent="I2vS5NGbRmWMpXVFBBUi-1">
          <mxGeometry x="455" y="380" width="135" height="190" as="geometry" />
        </mxCell>
        <mxCell id="iVNEUMaBJX04QpkRA2RZ-81" style="edgeStyle=orthogonalEdgeStyle;rounded=0;orthogonalLoop=1;jettySize=auto;html=1;exitX=0.5;exitY=0;exitDx=0;exitDy=0;entryX=0.5;entryY=1;entryDx=0;entryDy=0;" edge="1" parent="I2vS5NGbRmWMpXVFBBUi-1" source="iVNEUMaBJX04QpkRA2RZ-10" target="iVNEUMaBJX04QpkRA2RZ-5">
          <mxGeometry relative="1" as="geometry" />
        </mxCell>
        <mxCell id="iVNEUMaBJX04QpkRA2RZ-82" value="result" style="edgeLabel;html=1;align=center;verticalAlign=middle;resizable=0;points=[];" vertex="1" connectable="0" parent="iVNEUMaBJX04QpkRA2RZ-81">
          <mxGeometry x="-0.1865" relative="1" as="geometry">
            <mxPoint y="-2" as="offset" />
          </mxGeometry>
        </mxCell>
        <mxCell id="iVNEUMaBJX04QpkRA2RZ-77" style="edgeStyle=orthogonalEdgeStyle;rounded=0;orthogonalLoop=1;jettySize=auto;html=1;exitX=0.5;exitY=0;exitDx=0;exitDy=0;entryX=0.01;entryY=0.9;entryDx=0;entryDy=0;entryPerimeter=0;" edge="1" parent="I2vS5NGbRmWMpXVFBBUi-1" source="iVNEUMaBJX04QpkRA2RZ-8" target="iVNEUMaBJX04QpkRA2RZ-10">
          <mxGeometry relative="1" as="geometry">
            <mxPoint x="430" y="550" as="targetPoint" />
            <Array as="points">
              <mxPoint x="350" y="550" />
              <mxPoint x="440" y="550" />
              <mxPoint x="440" y="551" />
            </Array>
          </mxGeometry>
        </mxCell>
        <mxCell id="iVNEUMaBJX04QpkRA2RZ-78" value="reg_val" style="edgeLabel;html=1;align=center;verticalAlign=middle;resizable=0;points=[];" vertex="1" connectable="0" parent="iVNEUMaBJX04QpkRA2RZ-77">
          <mxGeometry x="-0.5281" y="1" relative="1" as="geometry">
            <mxPoint as="offset" />
          </mxGeometry>
        </mxCell>
        <mxCell id="iVNEUMaBJX04QpkRA2RZ-49" style="edgeStyle=orthogonalEdgeStyle;rounded=0;orthogonalLoop=1;jettySize=auto;html=1;exitX=1;exitY=0.5;exitDx=0;exitDy=0;entryX=0.009;entryY=0.554;entryDx=0;entryDy=0;entryPerimeter=0;" edge="1" parent="I2vS5NGbRmWMpXVFBBUi-1" source="iVNEUMaBJX04QpkRA2RZ-9" target="iVNEUMaBJX04QpkRA2RZ-10">
          <mxGeometry relative="1" as="geometry" />
        </mxCell>
        <mxCell id="iVNEUMaBJX04QpkRA2RZ-50" value="alu_en" style="edgeLabel;html=1;align=center;verticalAlign=middle;resizable=0;points=[];" vertex="1" connectable="0" parent="iVNEUMaBJX04QpkRA2RZ-49">
          <mxGeometry x="-0.0121" relative="1" as="geometry">
            <mxPoint x="8" as="offset" />
          </mxGeometry>
        </mxCell>
        <mxCell id="iVNEUMaBJX04QpkRA2RZ-51" style="edgeStyle=orthogonalEdgeStyle;rounded=0;orthogonalLoop=1;jettySize=auto;html=1;exitX=1;exitY=0.25;exitDx=0;exitDy=0;entryX=-0.018;entryY=0.333;entryDx=0;entryDy=0;entryPerimeter=0;" edge="1" parent="I2vS5NGbRmWMpXVFBBUi-1" source="iVNEUMaBJX04QpkRA2RZ-9" target="iVNEUMaBJX04QpkRA2RZ-10">
          <mxGeometry relative="1" as="geometry" />
        </mxCell>
        <mxCell id="iVNEUMaBJX04QpkRA2RZ-52" value="assign_op1" style="edgeLabel;html=1;align=center;verticalAlign=middle;resizable=0;points=[];" vertex="1" connectable="0" parent="iVNEUMaBJX04QpkRA2RZ-51">
          <mxGeometry x="0.0065" y="2" relative="1" as="geometry">
            <mxPoint x="5" y="-1" as="offset" />
          </mxGeometry>
        </mxCell>
        <mxCell id="iVNEUMaBJX04QpkRA2RZ-53" style="edgeStyle=orthogonalEdgeStyle;rounded=0;orthogonalLoop=1;jettySize=auto;html=1;exitX=1;exitY=0.75;exitDx=0;exitDy=0;entryX=-0.004;entryY=0.776;entryDx=0;entryDy=0;entryPerimeter=0;" edge="1" parent="I2vS5NGbRmWMpXVFBBUi-1" source="iVNEUMaBJX04QpkRA2RZ-9" target="iVNEUMaBJX04QpkRA2RZ-10">
          <mxGeometry relative="1" as="geometry" />
        </mxCell>
        <mxCell id="iVNEUMaBJX04QpkRA2RZ-85" style="edgeStyle=orthogonalEdgeStyle;rounded=0;orthogonalLoop=1;jettySize=auto;html=1;" edge="1" parent="I2vS5NGbRmWMpXVFBBUi-1" source="iVNEUMaBJX04QpkRA2RZ-11">
          <mxGeometry relative="1" as="geometry">
            <mxPoint x="880" y="320" as="targetPoint" />
          </mxGeometry>
        </mxCell>
        <mxCell id="iVNEUMaBJX04QpkRA2RZ-86" value="segments" style="edgeLabel;html=1;align=center;verticalAlign=middle;resizable=0;points=[];" vertex="1" connectable="0" parent="iVNEUMaBJX04QpkRA2RZ-85">
          <mxGeometry x="-0.0913" relative="1" as="geometry">
            <mxPoint as="offset" />
          </mxGeometry>
        </mxCell>
        <mxCell id="iVNEUMaBJX04QpkRA2RZ-11" value="ssdec" style="whiteSpace=wrap;html=1;" vertex="1" parent="I2vS5NGbRmWMpXVFBBUi-1">
          <mxGeometry x="740" y="290" width="50" height="60" as="geometry" />
        </mxCell>
        <mxCell id="iVNEUMaBJX04QpkRA2RZ-14" value="" style="edgeStyle=none;orthogonalLoop=1;jettySize=auto;html=1;rounded=0;" edge="1" parent="I2vS5NGbRmWMpXVFBBUi-1">
          <mxGeometry width="100" relative="1" as="geometry">
            <mxPoint y="234.51999999999998" as="sourcePoint" />
            <mxPoint x="100" y="234.51999999999998" as="targetPoint" />
            <Array as="points" />
          </mxGeometry>
        </mxCell>
        <mxCell id="iVNEUMaBJX04QpkRA2RZ-15" value="keypad" style="edgeLabel;html=1;align=center;verticalAlign=middle;resizable=0;points=[];" vertex="1" connectable="0" parent="iVNEUMaBJX04QpkRA2RZ-14">
          <mxGeometry x="0.0505" y="-2" relative="1" as="geometry">
            <mxPoint as="offset" />
          </mxGeometry>
        </mxCell>
        <mxCell id="iVNEUMaBJX04QpkRA2RZ-31" value="" style="endArrow=classic;html=1;rounded=0;entryX=-0.003;entryY=0.688;entryDx=0;entryDy=0;entryPerimeter=0;" edge="1" parent="I2vS5NGbRmWMpXVFBBUi-1">
          <mxGeometry width="50" height="50" relative="1" as="geometry">
            <mxPoint x="0.39000000000000057" y="269.52" as="sourcePoint" />
            <mxPoint x="100" y="269.5999999999999" as="targetPoint" />
          </mxGeometry>
        </mxCell>
        <mxCell id="iVNEUMaBJX04QpkRA2RZ-32" value="w_en" style="edgeLabel;html=1;align=center;verticalAlign=middle;resizable=0;points=[];" vertex="1" connectable="0" parent="iVNEUMaBJX04QpkRA2RZ-31">
          <mxGeometry x="0.0469" relative="1" as="geometry">
            <mxPoint as="offset" />
          </mxGeometry>
        </mxCell>
        <mxCell id="iVNEUMaBJX04QpkRA2RZ-33" value="" style="endArrow=classic;html=1;rounded=0;entryX=-0.015;entryY=0.698;entryDx=0;entryDy=0;entryPerimeter=0;" edge="1" parent="I2vS5NGbRmWMpXVFBBUi-1" target="iVNEUMaBJX04QpkRA2RZ-2">
          <mxGeometry width="50" height="50" relative="1" as="geometry">
            <mxPoint x="0.39000000000000057" y="300" as="sourcePoint" />
            <mxPoint x="70" y="300" as="targetPoint" />
          </mxGeometry>
        </mxCell>
        <mxCell id="iVNEUMaBJX04QpkRA2RZ-34" value="r_en" style="edgeLabel;html=1;align=center;verticalAlign=middle;resizable=0;points=[];" vertex="1" connectable="0" parent="iVNEUMaBJX04QpkRA2RZ-33">
          <mxGeometry x="0.0469" relative="1" as="geometry">
            <mxPoint x="-22" as="offset" />
          </mxGeometry>
        </mxCell>
        <mxCell id="iVNEUMaBJX04QpkRA2RZ-35" value="" style="endArrow=classic;html=1;rounded=0;entryX=-0.009;entryY=0.119;entryDx=0;entryDy=0;entryPerimeter=0;" edge="1" parent="I2vS5NGbRmWMpXVFBBUi-1" source="WR3jzJnu0eO9VFohUoPm-6" target="iVNEUMaBJX04QpkRA2RZ-9">
          <mxGeometry width="50" height="50" relative="1" as="geometry">
            <mxPoint x="50" y="300" as="sourcePoint" />
            <mxPoint x="100" y="440" as="targetPoint" />
            <Array as="points">
              <mxPoint x="50" y="420" />
            </Array>
          </mxGeometry>
        </mxCell>
        <mxCell id="iVNEUMaBJX04QpkRA2RZ-83" style="edgeStyle=orthogonalEdgeStyle;rounded=0;orthogonalLoop=1;jettySize=auto;html=1;exitX=1;exitY=0.5;exitDx=0;exitDy=0;entryX=0;entryY=0.5;entryDx=0;entryDy=0;" edge="1" parent="I2vS5NGbRmWMpXVFBBUi-1" source="iVNEUMaBJX04QpkRA2RZ-5" target="iVNEUMaBJX04QpkRA2RZ-11">
          <mxGeometry relative="1" as="geometry" />
        </mxCell>
        <mxCell id="iVNEUMaBJX04QpkRA2RZ-84" value="seg" style="edgeLabel;html=1;align=center;verticalAlign=middle;resizable=0;points=[];" vertex="1" connectable="0" parent="iVNEUMaBJX04QpkRA2RZ-83">
          <mxGeometry x="0.6164" relative="1" as="geometry">
            <mxPoint as="offset" />
          </mxGeometry>
        </mxCell>
        <mxCell id="iVNEUMaBJX04QpkRA2RZ-55" value="" style="endArrow=classic;html=1;rounded=0;exitX=0.998;exitY=0.125;exitDx=0;exitDy=0;exitPerimeter=0;entryX=-0.016;entryY=0.932;entryDx=0;entryDy=0;entryPerimeter=0;" edge="1" parent="I2vS5NGbRmWMpXVFBBUi-1" source="iVNEUMaBJX04QpkRA2RZ-9" target="iVNEUMaBJX04QpkRA2RZ-5">
          <mxGeometry width="50" height="50" relative="1" as="geometry">
            <mxPoint x="280" y="430" as="sourcePoint" />
            <mxPoint x="430" y="340" as="targetPoint" />
            <Array as="points">
              <mxPoint x="370" y="420" />
              <mxPoint x="370" y="370" />
              <mxPoint x="370" y="339" />
            </Array>
          </mxGeometry>
        </mxCell>
        <mxCell id="iVNEUMaBJX04QpkRA2RZ-56" value="result_ready" style="edgeLabel;html=1;align=center;verticalAlign=middle;resizable=0;points=[];" connectable="0" vertex="1" parent="iVNEUMaBJX04QpkRA2RZ-55">
          <mxGeometry x="-0.5894" relative="1" as="geometry">
            <mxPoint x="-21" as="offset" />
          </mxGeometry>
        </mxCell>
        <mxCell id="iVNEUMaBJX04QpkRA2RZ-72" value="" style="endArrow=classic;html=1;rounded=0;" edge="1" parent="I2vS5NGbRmWMpXVFBBUi-1">
          <mxGeometry width="50" height="50" relative="1" as="geometry">
            <mxPoint y="690" as="sourcePoint" />
            <mxPoint x="130" y="690" as="targetPoint" />
          </mxGeometry>
        </mxCell>
        <mxCell id="iVNEUMaBJX04QpkRA2RZ-73" value="register_button" style="edgeLabel;html=1;align=center;verticalAlign=middle;resizable=0;points=[];" vertex="1" connectable="0" parent="iVNEUMaBJX04QpkRA2RZ-72">
          <mxGeometry x="0.1836" y="2" relative="1" as="geometry">
            <mxPoint y="2" as="offset" />
          </mxGeometry>
        </mxCell>
        <mxCell id="iVNEUMaBJX04QpkRA2RZ-76" value="" style="endArrow=classic;html=1;rounded=0;entryX=-0.022;entryY=0.419;entryDx=0;entryDy=0;entryPerimeter=0;" edge="1" parent="I2vS5NGbRmWMpXVFBBUi-1">
          <mxGeometry width="50" height="50" relative="1" as="geometry">
            <mxPoint x="150" y="740" as="sourcePoint" />
            <mxPoint x="290" y="670.95" as="targetPoint" />
            <Array as="points">
              <mxPoint x="253" y="740" />
              <mxPoint x="252.64" y="670" />
            </Array>
          </mxGeometry>
        </mxCell>
        <mxCell id="iVNEUMaBJX04QpkRA2RZ-79" value="" style="endArrow=classic;html=1;rounded=0;entryX=0.173;entryY=-0.008;entryDx=0;entryDy=0;entryPerimeter=0;" edge="1" parent="I2vS5NGbRmWMpXVFBBUi-1" target="iVNEUMaBJX04QpkRA2RZ-8">
          <mxGeometry width="50" height="50" relative="1" as="geometry">
            <mxPoint x="310" y="310" as="sourcePoint" />
            <mxPoint x="310" y="450" as="targetPoint" />
          </mxGeometry>
        </mxCell>
        <mxCell id="iVNEUMaBJX04QpkRA2RZ-80" value="" style="endArrow=classic;html=1;rounded=0;entryX=-0.006;entryY=0.094;entryDx=0;entryDy=0;entryPerimeter=0;" edge="1" parent="I2vS5NGbRmWMpXVFBBUi-1" target="iVNEUMaBJX04QpkRA2RZ-10">
          <mxGeometry width="50" height="50" relative="1" as="geometry">
            <mxPoint x="290" y="360" as="sourcePoint" />
            <mxPoint x="400" y="450" as="targetPoint" />
            <Array as="points">
              <mxPoint x="290" y="400" />
            </Array>
          </mxGeometry>
        </mxCell>
        <mxCell id="iVNEUMaBJX04QpkRA2RZ-89" value="" style="endArrow=classic;html=1;rounded=0;exitX=1.003;exitY=0.436;exitDx=0;exitDy=0;exitPerimeter=0;" edge="1" parent="I2vS5NGbRmWMpXVFBBUi-1" source="iVNEUMaBJX04QpkRA2RZ-5">
          <mxGeometry width="50" height="50" relative="1" as="geometry">
            <mxPoint x="640" y="370" as="sourcePoint" />
            <mxPoint x="880" y="260" as="targetPoint" />
            <Array as="points">
              <mxPoint x="730" y="260" />
            </Array>
          </mxGeometry>
        </mxCell>
        <mxCell id="iVNEUMaBJX04QpkRA2RZ-90" value="overflow" style="edgeLabel;html=1;align=center;verticalAlign=middle;resizable=0;points=[];" vertex="1" connectable="0" parent="iVNEUMaBJX04QpkRA2RZ-89">
          <mxGeometry x="0.01" y="1" relative="1" as="geometry">
            <mxPoint as="offset" />
          </mxGeometry>
        </mxCell>
        <mxCell id="iVNEUMaBJX04QpkRA2RZ-91" value="" style="ellipse;whiteSpace=wrap;html=1;aspect=fixed;fillColor=#3399FF;" vertex="1" parent="I2vS5NGbRmWMpXVFBBUi-1">
          <mxGeometry x="890" y="220" width="20" height="20" as="geometry" />
        </mxCell>
        <mxCell id="iVNEUMaBJX04QpkRA2RZ-92" value="" style="ellipse;whiteSpace=wrap;html=1;aspect=fixed;fillColor=#FF3333;" vertex="1" parent="I2vS5NGbRmWMpXVFBBUi-1">
          <mxGeometry x="890" y="250" width="20" height="20" as="geometry" />
        </mxCell>
        <mxCell id="NxOlCpblaWw3LpfSd1bG-1" value="" style="rounded=0;whiteSpace=wrap;html=1;fontColor=#000000;strokeColor=#00CC00;strokeWidth=4;" vertex="1" parent="I2vS5NGbRmWMpXVFBBUi-1">
          <mxGeometry x="890" y="294" width="28" height="28" as="geometry" />
        </mxCell>
        <mxCell id="NxOlCpblaWw3LpfSd1bG-2" value="" style="rounded=0;whiteSpace=wrap;html=1;fontColor=#000000;strokeColor=#00CC00;strokeWidth=4;" vertex="1" parent="I2vS5NGbRmWMpXVFBBUi-1">
          <mxGeometry x="890" y="322" width="28" height="28" as="geometry" />
        </mxCell>
        <mxCell id="NxOlCpblaWw3LpfSd1bG-3" value="" style="rounded=0;whiteSpace=wrap;html=1;fontColor=#000000;strokeColor=#00CC00;strokeWidth=4;" vertex="1" parent="I2vS5NGbRmWMpXVFBBUi-1">
          <mxGeometry x="930" y="294" width="28" height="28" as="geometry" />
        </mxCell>
        <mxCell id="NxOlCpblaWw3LpfSd1bG-4" value="" style="rounded=0;whiteSpace=wrap;html=1;fontColor=#000000;strokeColor=#00CC00;strokeWidth=4;" vertex="1" parent="I2vS5NGbRmWMpXVFBBUi-1">
          <mxGeometry x="930" y="322" width="28" height="28" as="geometry" />
        </mxCell>
        <mxCell id="NxOlCpblaWw3LpfSd1bG-5" value="" style="triangle;whiteSpace=wrap;html=1;" vertex="1" parent="I2vS5NGbRmWMpXVFBBUi-1">
          <mxGeometry x="100" y="550" width="10" height="20" as="geometry" />
        </mxCell>
        <mxCell id="NxOlCpblaWw3LpfSd1bG-6" value="" style="triangle;whiteSpace=wrap;html=1;" vertex="1" parent="I2vS5NGbRmWMpXVFBBUi-1">
          <mxGeometry x="100" y="330" width="10" height="20" as="geometry" />
        </mxCell>
        <mxCell id="NxOlCpblaWw3LpfSd1bG-7" value="" style="triangle;whiteSpace=wrap;html=1;" vertex="1" parent="I2vS5NGbRmWMpXVFBBUi-1">
          <mxGeometry x="100" y="70" width="10" height="20" as="geometry" />
        </mxCell>
        <mxCell id="NxOlCpblaWw3LpfSd1bG-13" value="" style="triangle;whiteSpace=wrap;html=1;" vertex="1" parent="I2vS5NGbRmWMpXVFBBUi-1">
          <mxGeometry x="450" y="330" width="10" height="20" as="geometry" />
        </mxCell>
        <mxCell id="NxOlCpblaWw3LpfSd1bG-15" value="" style="triangle;whiteSpace=wrap;html=1;" vertex="1" parent="I2vS5NGbRmWMpXVFBBUi-1">
          <mxGeometry x="130" y="690" width="10" height="20" as="geometry" />
        </mxCell>
        <mxCell id="NxOlCpblaWw3LpfSd1bG-16" value="" style="triangle;whiteSpace=wrap;html=1;" vertex="1" parent="I2vS5NGbRmWMpXVFBBUi-1">
          <mxGeometry x="290" y="680" width="10" height="20" as="geometry" />
        </mxCell>
        <mxCell id="NxOlCpblaWw3LpfSd1bG-17" value="" style="triangle;whiteSpace=wrap;html=1;" vertex="1" parent="I2vS5NGbRmWMpXVFBBUi-1">
          <mxGeometry x="455" y="550" width="15" height="20" as="geometry" />
        </mxCell>
        <mxCell id="NxOlCpblaWw3LpfSd1bG-18" value="" style="ellipse;whiteSpace=wrap;html=1;" vertex="1" parent="I2vS5NGbRmWMpXVFBBUi-1">
          <mxGeometry x="107" y="570" width="10" height="10" as="geometry" />
        </mxCell>
        <mxCell id="NxOlCpblaWw3LpfSd1bG-19" value="" style="ellipse;whiteSpace=wrap;html=1;" vertex="1" parent="I2vS5NGbRmWMpXVFBBUi-1">
          <mxGeometry x="136" y="710" width="10" height="10" as="geometry" />
        </mxCell>
        <mxCell id="NxOlCpblaWw3LpfSd1bG-20" value="" style="ellipse;whiteSpace=wrap;html=1;" vertex="1" parent="I2vS5NGbRmWMpXVFBBUi-1">
          <mxGeometry x="300" y="700" width="10" height="10" as="geometry" />
        </mxCell>
        <mxCell id="NxOlCpblaWw3LpfSd1bG-21" value="" style="ellipse;whiteSpace=wrap;html=1;" vertex="1" parent="I2vS5NGbRmWMpXVFBBUi-1">
          <mxGeometry x="470" y="570" width="10" height="10" as="geometry" />
        </mxCell>
        <mxCell id="NxOlCpblaWw3LpfSd1bG-22" value="" style="ellipse;whiteSpace=wrap;html=1;" vertex="1" parent="I2vS5NGbRmWMpXVFBBUi-1">
          <mxGeometry x="455" y="350" width="10" height="10" as="geometry" />
        </mxCell>
        <mxCell id="NxOlCpblaWw3LpfSd1bG-23" value="" style="ellipse;whiteSpace=wrap;html=1;" vertex="1" parent="I2vS5NGbRmWMpXVFBBUi-1">
          <mxGeometry x="110" y="350" width="10" height="10" as="geometry" />
        </mxCell>
        <mxCell id="NxOlCpblaWw3LpfSd1bG-24" value="" style="ellipse;whiteSpace=wrap;html=1;" vertex="1" parent="I2vS5NGbRmWMpXVFBBUi-1">
          <mxGeometry x="110" y="90" width="10" height="10" as="geometry" />
        </mxCell>
        <mxCell id="NxOlCpblaWw3LpfSd1bG-25" value="" style="endArrow=none;html=1;rounded=0;" edge="1" parent="I2vS5NGbRmWMpXVFBBUi-1">
          <mxGeometry width="50" height="50" relative="1" as="geometry">
            <mxPoint x="30" y="55" as="sourcePoint" />
            <mxPoint x="50" y="35" as="targetPoint" />
          </mxGeometry>
        </mxCell>
        <mxCell id="NxOlCpblaWw3LpfSd1bG-26" value="2" style="text;html=1;align=center;verticalAlign=middle;resizable=0;points=[];autosize=1;strokeColor=none;fillColor=none;" vertex="1" parent="I2vS5NGbRmWMpXVFBBUi-1">
          <mxGeometry x="30" y="40" width="30" height="30" as="geometry" />
        </mxCell>
        <mxCell id="NxOlCpblaWw3LpfSd1bG-27" value="" style="endArrow=none;html=1;rounded=0;" edge="1" parent="I2vS5NGbRmWMpXVFBBUi-1">
          <mxGeometry width="50" height="50" relative="1" as="geometry">
            <mxPoint x="10" y="250" as="sourcePoint" />
            <mxPoint x="30" y="220" as="targetPoint" />
          </mxGeometry>
        </mxCell>
        <mxCell id="NxOlCpblaWw3LpfSd1bG-28" value="2" style="text;html=1;align=center;verticalAlign=middle;resizable=0;points=[];autosize=1;strokeColor=none;fillColor=none;" vertex="1" parent="I2vS5NGbRmWMpXVFBBUi-1">
          <mxGeometry x="10" y="228" width="30" height="30" as="geometry" />
        </mxCell>
        <mxCell id="NxOlCpblaWw3LpfSd1bG-29" value="" style="endArrow=none;html=1;rounded=0;" edge="1" parent="I2vS5NGbRmWMpXVFBBUi-1">
          <mxGeometry width="50" height="50" relative="1" as="geometry">
            <mxPoint x="270" y="90" as="sourcePoint" />
            <mxPoint x="300" y="60" as="targetPoint" />
          </mxGeometry>
        </mxCell>
        <mxCell id="NxOlCpblaWw3LpfSd1bG-30" value="3" style="text;html=1;align=center;verticalAlign=middle;resizable=0;points=[];autosize=1;strokeColor=none;fillColor=none;" vertex="1" parent="I2vS5NGbRmWMpXVFBBUi-1">
          <mxGeometry x="285" y="68" width="30" height="30" as="geometry" />
        </mxCell>
        <mxCell id="NxOlCpblaWw3LpfSd1bG-31" value="" style="endArrow=none;html=1;rounded=0;" edge="1" parent="I2vS5NGbRmWMpXVFBBUi-1">
          <mxGeometry width="50" height="50" relative="1" as="geometry">
            <mxPoint x="395" y="380" as="sourcePoint" />
            <mxPoint x="420" y="360" as="targetPoint" />
          </mxGeometry>
        </mxCell>
        <mxCell id="NxOlCpblaWw3LpfSd1bG-32" value="9" style="text;html=1;align=center;verticalAlign=middle;resizable=0;points=[];autosize=1;strokeColor=none;fillColor=none;" vertex="1" parent="I2vS5NGbRmWMpXVFBBUi-1">
          <mxGeometry x="395" y="370" width="30" height="30" as="geometry" />
        </mxCell>
        <mxCell id="NxOlCpblaWw3LpfSd1bG-35" value="" style="endArrow=none;html=1;rounded=0;" edge="1" parent="I2vS5NGbRmWMpXVFBBUi-1">
          <mxGeometry width="50" height="50" relative="1" as="geometry">
            <mxPoint x="502.5" y="380" as="sourcePoint" />
            <mxPoint x="527.5" y="360" as="targetPoint" />
          </mxGeometry>
        </mxCell>
        <mxCell id="NxOlCpblaWw3LpfSd1bG-36" value="9" style="text;html=1;align=center;verticalAlign=middle;resizable=0;points=[];autosize=1;strokeColor=none;fillColor=none;" vertex="1" parent="I2vS5NGbRmWMpXVFBBUi-1">
          <mxGeometry x="530" y="350" width="30" height="30" as="geometry" />
        </mxCell>
        <mxCell id="NxOlCpblaWw3LpfSd1bG-37" value="" style="endArrow=none;html=1;rounded=0;" edge="1" parent="I2vS5NGbRmWMpXVFBBUi-1">
          <mxGeometry width="50" height="50" relative="1" as="geometry">
            <mxPoint x="660" y="335" as="sourcePoint" />
            <mxPoint x="690" y="305" as="targetPoint" />
          </mxGeometry>
        </mxCell>
        <mxCell id="NxOlCpblaWw3LpfSd1bG-38" value="8" style="text;html=1;align=center;verticalAlign=middle;resizable=0;points=[];autosize=1;strokeColor=none;fillColor=none;" vertex="1" parent="I2vS5NGbRmWMpXVFBBUi-1">
          <mxGeometry x="665" y="318" width="30" height="30" as="geometry" />
        </mxCell>
        <mxCell id="NxOlCpblaWw3LpfSd1bG-43" value="" style="endArrow=none;html=1;rounded=0;" edge="1" parent="I2vS5NGbRmWMpXVFBBUi-1">
          <mxGeometry width="50" height="50" relative="1" as="geometry">
            <mxPoint x="100" y="760" as="sourcePoint" />
            <mxPoint x="130" y="730" as="targetPoint" />
          </mxGeometry>
        </mxCell>
        <mxCell id="NxOlCpblaWw3LpfSd1bG-44" value="3" style="text;html=1;align=center;verticalAlign=middle;resizable=0;points=[];autosize=1;strokeColor=none;fillColor=none;" vertex="1" parent="I2vS5NGbRmWMpXVFBBUi-1">
          <mxGeometry x="110" y="740" width="30" height="30" as="geometry" />
        </mxCell>
        <mxCell id="NxOlCpblaWw3LpfSd1bG-45" value="3" style="text;html=1;align=center;verticalAlign=middle;resizable=0;points=[];autosize=1;strokeColor=none;fillColor=none;" vertex="1" parent="I2vS5NGbRmWMpXVFBBUi-1">
          <mxGeometry x="146" y="584" width="30" height="30" as="geometry" />
        </mxCell>
        <mxCell id="NxOlCpblaWw3LpfSd1bG-46" value="" style="endArrow=none;html=1;rounded=0;" edge="1" parent="I2vS5NGbRmWMpXVFBBUi-1">
          <mxGeometry width="50" height="50" relative="1" as="geometry">
            <mxPoint x="146" y="604" as="sourcePoint" />
            <mxPoint x="166" y="584" as="targetPoint" />
          </mxGeometry>
        </mxCell>
        <mxCell id="NxOlCpblaWw3LpfSd1bG-47" value="" style="endArrow=none;html=1;rounded=0;" edge="1" parent="I2vS5NGbRmWMpXVFBBUi-1" source="NxOlCpblaWw3LpfSd1bG-48">
          <mxGeometry width="50" height="50" relative="1" as="geometry">
            <mxPoint x="340" y="640" as="sourcePoint" />
            <mxPoint x="360" y="620" as="targetPoint" />
          </mxGeometry>
        </mxCell>
        <mxCell id="NxOlCpblaWw3LpfSd1bG-49" value="" style="endArrow=none;html=1;rounded=0;" edge="1" parent="I2vS5NGbRmWMpXVFBBUi-1" target="NxOlCpblaWw3LpfSd1bG-48">
          <mxGeometry width="50" height="50" relative="1" as="geometry">
            <mxPoint x="340" y="640" as="sourcePoint" />
            <mxPoint x="360" y="620" as="targetPoint" />
          </mxGeometry>
        </mxCell>
        <mxCell id="NxOlCpblaWw3LpfSd1bG-48" value="9" style="text;html=1;align=center;verticalAlign=middle;resizable=0;points=[];autosize=1;strokeColor=none;fillColor=none;" vertex="1" parent="I2vS5NGbRmWMpXVFBBUi-1">
          <mxGeometry x="350" y="618" width="30" height="30" as="geometry" />
        </mxCell>
        <mxCell id="WR3jzJnu0eO9VFohUoPm-3" value="" style="shape=waypoint;sketch=0;fillStyle=solid;size=6;pointerEvents=1;points=[];fillColor=none;resizable=0;rotatable=0;perimeter=centerPerimeter;snapToPoint=1;" vertex="1" parent="I2vS5NGbRmWMpXVFBBUi-1">
          <mxGeometry x="146" y="731" width="20" height="20" as="geometry" />
        </mxCell>
        <mxCell id="WR3jzJnu0eO9VFohUoPm-5" value="" style="shape=waypoint;sketch=0;fillStyle=solid;size=6;pointerEvents=1;points=[];fillColor=none;resizable=0;rotatable=0;perimeter=centerPerimeter;snapToPoint=1;" vertex="1" parent="I2vS5NGbRmWMpXVFBBUi-1">
          <mxGeometry x="280" y="350" width="20" height="20" as="geometry" />
        </mxCell>
        <mxCell id="WR3jzJnu0eO9VFohUoPm-7" value="" style="endArrow=classic;html=1;rounded=0;entryDx=0;entryDy=0;entryPerimeter=0;" edge="1" parent="I2vS5NGbRmWMpXVFBBUi-1" target="WR3jzJnu0eO9VFohUoPm-6">
          <mxGeometry width="50" height="50" relative="1" as="geometry">
            <mxPoint x="50" y="300" as="sourcePoint" />
            <mxPoint x="99" y="420" as="targetPoint" />
            <Array as="points" />
          </mxGeometry>
        </mxCell>
        <mxCell id="WR3jzJnu0eO9VFohUoPm-6" value="" style="shape=waypoint;sketch=0;fillStyle=solid;size=6;pointerEvents=1;points=[];fillColor=none;resizable=0;rotatable=0;perimeter=centerPerimeter;snapToPoint=1;" vertex="1" parent="I2vS5NGbRmWMpXVFBBUi-1">
          <mxGeometry x="40" y="290" width="20" height="20" as="geometry" />
        </mxCell>
        <mxCell id="WR3jzJnu0eO9VFohUoPm-8" value="" style="shape=waypoint;sketch=0;fillStyle=solid;size=6;pointerEvents=1;points=[];fillColor=none;resizable=0;rotatable=0;perimeter=centerPerimeter;snapToPoint=1;" vertex="1" parent="I2vS5NGbRmWMpXVFBBUi-1">
          <mxGeometry x="300" y="302" width="20" height="20" as="geometry" />
        </mxCell>
        <mxCell id="WR3jzJnu0eO9VFohUoPm-9" value="" style="shape=waypoint;sketch=0;fillStyle=solid;size=6;pointerEvents=1;points=[];fillColor=none;resizable=0;rotatable=0;perimeter=centerPerimeter;snapToPoint=1;" vertex="1" parent="I2vS5NGbRmWMpXVFBBUi-1">
          <mxGeometry x="385" y="240" width="20" height="20" as="geometry" />
        </mxCell>
        <mxCell id="WR3jzJnu0eO9VFohUoPm-12" value="&lt;font style=&quot;font-size: 8px;&quot;&gt;pb[1:0]&lt;/font&gt;" style="text;html=1;align=center;verticalAlign=middle;resizable=0;points=[];autosize=1;strokeColor=none;fillColor=none;" vertex="1" parent="I2vS5NGbRmWMpXVFBBUi-1">
          <mxGeometry x="30" y="234" width="42" height="26" as="geometry" />
        </mxCell>
        <mxCell id="WR3jzJnu0eO9VFohUoPm-13" value="&lt;font style=&quot;font-size: 8px;&quot;&gt;pb[2]&lt;/font&gt;" style="text;html=1;align=center;verticalAlign=middle;resizable=0;points=[];autosize=1;strokeColor=none;fillColor=none;" vertex="1" parent="I2vS5NGbRmWMpXVFBBUi-1">
          <mxGeometry x="33" y="268" width="36" height="26" as="geometry" />
        </mxCell>
        <mxCell id="WR3jzJnu0eO9VFohUoPm-14" value="&lt;font style=&quot;font-size: 8px;&quot;&gt;pb[3]&lt;/font&gt;" style="text;html=1;align=center;verticalAlign=middle;resizable=0;points=[];autosize=1;strokeColor=none;fillColor=none;" vertex="1" parent="I2vS5NGbRmWMpXVFBBUi-1">
          <mxGeometry x="10" y="299" width="36" height="26" as="geometry" />
        </mxCell>
        <mxCell id="WR3jzJnu0eO9VFohUoPm-15" value="&lt;font style=&quot;font-size: 8px;&quot;&gt;pb[11:10]&lt;/font&gt;" style="text;html=1;align=center;verticalAlign=middle;resizable=0;points=[];autosize=1;strokeColor=none;fillColor=none;" vertex="1" parent="I2vS5NGbRmWMpXVFBBUi-1">
          <mxGeometry x="44" y="42" width="51" height="26" as="geometry" />
        </mxCell>
        <mxCell id="WR3jzJnu0eO9VFohUoPm-16" value="&lt;font style=&quot;font-size: 8px;&quot;&gt;pb[9:6]&lt;/font&gt;" style="text;html=1;align=center;verticalAlign=middle;resizable=0;points=[];autosize=1;strokeColor=none;fillColor=none;" vertex="1" parent="I2vS5NGbRmWMpXVFBBUi-1">
          <mxGeometry x="55" y="690" width="42" height="26" as="geometry" />
        </mxCell>
        <mxCell id="WR3jzJnu0eO9VFohUoPm-18" value="" style="endArrow=none;html=1;rounded=0;" edge="1" parent="I2vS5NGbRmWMpXVFBBUi-1">
          <mxGeometry width="50" height="50" relative="1" as="geometry">
            <mxPoint x="10" y="700" as="sourcePoint" />
            <mxPoint x="30" y="680" as="targetPoint" />
          </mxGeometry>
        </mxCell>
        <mxCell id="WR3jzJnu0eO9VFohUoPm-19" value="4" style="text;html=1;align=center;verticalAlign=middle;resizable=0;points=[];autosize=1;strokeColor=none;fillColor=none;" vertex="1" parent="I2vS5NGbRmWMpXVFBBUi-1">
          <mxGeometry x="9" y="687" width="25" height="26" as="geometry" />
        </mxCell>
        <mxCell id="DNEullF8GpyWgikbOoNe-1" value="" style="endArrow=classic;html=1;rounded=0;entryX=0.75;entryY=1;entryDx=0;entryDy=0;" edge="1" parent="I2vS5NGbRmWMpXVFBBUi-1" source="DNEullF8GpyWgikbOoNe-2" target="iVNEUMaBJX04QpkRA2RZ-8">
          <mxGeometry width="50" height="50" relative="1" as="geometry">
            <mxPoint x="74" y="266" as="sourcePoint" />
            <mxPoint x="368" y="768" as="targetPoint" />
            <Array as="points">
              <mxPoint x="76" y="388" />
              <mxPoint x="76" y="770" />
              <mxPoint x="380" y="770" />
            </Array>
          </mxGeometry>
        </mxCell>
        <mxCell id="DNEullF8GpyWgikbOoNe-8" value="" style="endArrow=classic;html=1;rounded=0;entryDx=0;entryDy=0;" edge="1" parent="I2vS5NGbRmWMpXVFBBUi-1" target="DNEullF8GpyWgikbOoNe-2">
          <mxGeometry width="50" height="50" relative="1" as="geometry">
            <mxPoint x="74" y="266" as="sourcePoint" />
            <mxPoint x="380" y="700" as="targetPoint" />
            <Array as="points" />
          </mxGeometry>
        </mxCell>
        <mxCell id="DNEullF8GpyWgikbOoNe-2" value="" style="shape=waypoint;sketch=0;fillStyle=solid;size=6;pointerEvents=1;points=[];fillColor=none;resizable=0;rotatable=0;perimeter=centerPerimeter;snapToPoint=1;" vertex="1" parent="I2vS5NGbRmWMpXVFBBUi-1">
          <mxGeometry x="64" y="256" width="20" height="20" as="geometry" />
        </mxCell>
      </root>
    </mxGraphModel>
  </diagram>
</mxfile>
